<?xml version="1.0" standalone="no"?>
<!DOCTYPE svg PUBLIC "-//W3C//DTD SVG 20010904//EN"
 "http://www.w3.org/TR/2001/REC-SVG-20010904/DTD/svg10.dtd">
<svg version="1.0" xmlns="http://www.w3.org/2000/svg"
 width="512.000000pt" height="512.000000pt" viewBox="0 0 512.000000 512.000000"
 preserveAspectRatio="xMidYMid meet">
<metadata>
Created by potrace 1.14, written by Peter Selinger 2001-2017
</metadata>
<g transform="translate(0.000000,512.000000) scale(0.100000,-0.100000)"
fill="#000000" stroke="none">
<path d="M2379 5060 c-1 -3 -2 -255 -3 -560 l-1 -555 -900 -5 c-884 -5 -901
-5 -935 -25 -19 -12 -48 -40 -65 -64 l-30 -43 -5 -431 -5 -431 -150 -2 c-162
-1 -185 -6 -238 -59 -15 -15 -31 -44 -37 -64 -14 -50 -13 -1273 1 -1324 14
-52 60 -101 107 -115 22 -7 101 -12 181 -12 l141 0 1 -577 c0 -417 4 -587 12
-611 15 -39 58 -87 101 -109 29 -16 180 -17 1981 -18 1073 0 1967 2 1987 6 56
9 105 48 133 103 l25 50 0 578 0 578 148 0 c121 0 154 4 188 19 48 22 80 59
94 110 6 23 10 269 10 668 -1 531 -3 637 -15 665 -41 93 -95 114 -288 113
l-137 0 0 410 c0 251 -4 424 -10 447 -13 45 -51 93 -94 116 -28 16 -106 17
-931 22 l-900 5 0 552 c0 303 -4 555 -9 560 -8 8 -355 12 -357 3z m1161 -2030
c187 -55 347 -241 375 -435 25 -176 -27 -335 -151 -459 -100 -99 -211 -147
-354 -152 -163 -5 -286 43 -398 155 -209 209 -218 520 -20 736 144 157 346
214 548 155z m-1755 6 c33 -3 76 -10 95 -16 156 -46 295 -179 351 -336 28 -77
34 -217 13 -299 -63 -249 -295 -419 -549 -402 -120 9 -212 45 -299 117 -199
165 -254 437 -134 663 44 82 146 180 232 222 63 32 194 66 221 59 6 -1 37 -5
70 -8z m1576 -1755 c8 -2 7 -355 -2 -361 -6 -4 -1555 -5 -1595 -1 -12 1 -16
353 -3 361 5 4 1577 5 1600 1z"/>
</g>
</svg>
